<mxfile host="app.diagrams.net" agent="Mozilla/5.0 (Windows NT 10.0; Win64; x64) AppleWebKit/537.36 (KHTML, like Gecko) Chrome/135.0.0.0 Safari/537.36" version="26.2.15">
  <diagram name="Trang-1" id="ahY1zGtWVMnq-yM7Z2r8">
    <mxGraphModel dx="2253" dy="711" grid="1" gridSize="10" guides="1" tooltips="1" connect="1" arrows="1" fold="1" page="1" pageScale="1" pageWidth="827" pageHeight="1169" math="0" shadow="0">
      <root>
        <mxCell id="0" />
        <mxCell id="1" parent="0" />
        <mxCell id="kx-mthBQ9t7jLjJqVGqb-1" value="Xác thực" style="ellipse;whiteSpace=wrap;html=1;" parent="1" vertex="1">
          <mxGeometry x="150" y="70" width="150" height="70" as="geometry" />
        </mxCell>
        <mxCell id="kx-mthBQ9t7jLjJqVGqb-2" value="Đăng nhập/Đăng ký" style="ellipse;whiteSpace=wrap;html=1;" parent="1" vertex="1">
          <mxGeometry x="370" y="30" width="160" height="70" as="geometry" />
        </mxCell>
        <mxCell id="kx-mthBQ9t7jLjJqVGqb-3" value="Đăng xuất" style="ellipse;whiteSpace=wrap;html=1;" parent="1" vertex="1">
          <mxGeometry x="370" y="120" width="160" height="70" as="geometry" />
        </mxCell>
        <mxCell id="kx-mthBQ9t7jLjJqVGqb-4" value="Quản lý thông tin" style="ellipse;whiteSpace=wrap;html=1;" parent="1" vertex="1">
          <mxGeometry x="140" y="300" width="150" height="70" as="geometry" />
        </mxCell>
        <mxCell id="kx-mthBQ9t7jLjJqVGqb-5" value="Chỉnh sửa thông tin cá nhân" style="ellipse;whiteSpace=wrap;html=1;" parent="1" vertex="1">
          <mxGeometry x="370" y="230" width="160" height="70" as="geometry" />
        </mxCell>
        <mxCell id="kx-mthBQ9t7jLjJqVGqb-6" value="Đổi mật khẩu" style="ellipse;whiteSpace=wrap;html=1;" parent="1" vertex="1">
          <mxGeometry x="370" y="310" width="160" height="70" as="geometry" />
        </mxCell>
        <mxCell id="kx-mthBQ9t7jLjJqVGqb-7" value="Cập nhật mật khảu" style="ellipse;whiteSpace=wrap;html=1;" parent="1" vertex="1">
          <mxGeometry x="370" y="400" width="160" height="70" as="geometry" />
        </mxCell>
        <mxCell id="kx-mthBQ9t7jLjJqVGqb-8" value="Quản lý đơn đặt" style="ellipse;whiteSpace=wrap;html=1;" parent="1" vertex="1">
          <mxGeometry x="135" y="560" width="160" height="70" as="geometry" />
        </mxCell>
        <mxCell id="kx-mthBQ9t7jLjJqVGqb-10" value="Thanh toán" style="ellipse;whiteSpace=wrap;html=1;" parent="1" vertex="1">
          <mxGeometry x="360" y="570" width="160" height="70" as="geometry" />
        </mxCell>
        <mxCell id="kx-mthBQ9t7jLjJqVGqb-11" value="Tạo đơn đặt xe" style="ellipse;whiteSpace=wrap;html=1;" parent="1" vertex="1">
          <mxGeometry x="360" y="490" width="160" height="70" as="geometry" />
        </mxCell>
        <mxCell id="kx-mthBQ9t7jLjJqVGqb-15" value="Quản lý xe thuê&amp;nbsp;" style="ellipse;whiteSpace=wrap;html=1;" parent="1" vertex="1">
          <mxGeometry x="130" y="770" width="160" height="70" as="geometry" />
        </mxCell>
        <mxCell id="kx-mthBQ9t7jLjJqVGqb-16" value="Xem các đơn đã đặt" style="ellipse;whiteSpace=wrap;html=1;" parent="1" vertex="1">
          <mxGeometry x="360" y="650" width="160" height="70" as="geometry" />
        </mxCell>
        <mxCell id="kx-mthBQ9t7jLjJqVGqb-18" value="Xem tât cả xe&amp;nbsp;" style="ellipse;whiteSpace=wrap;html=1;" parent="1" vertex="1">
          <mxGeometry x="360" y="740" width="160" height="70" as="geometry" />
        </mxCell>
        <mxCell id="kx-mthBQ9t7jLjJqVGqb-19" value="Xem các xe đã thuê và đang thuê" style="ellipse;whiteSpace=wrap;html=1;" parent="1" vertex="1">
          <mxGeometry x="350" y="830" width="160" height="70" as="geometry" />
        </mxCell>
        <mxCell id="kx-mthBQ9t7jLjJqVGqb-20" value="" style="endArrow=none;html=1;rounded=0;exitX=0;exitY=0.5;exitDx=0;exitDy=0;entryX=0;entryY=0.5;entryDx=0;entryDy=0;" parent="1" source="kx-mthBQ9t7jLjJqVGqb-19" target="kx-mthBQ9t7jLjJqVGqb-18" edge="1">
          <mxGeometry width="50" height="50" relative="1" as="geometry">
            <mxPoint x="390" y="700" as="sourcePoint" />
            <mxPoint x="440" y="650" as="targetPoint" />
            <Array as="points">
              <mxPoint x="320" y="865" />
              <mxPoint x="320" y="775" />
            </Array>
          </mxGeometry>
        </mxCell>
        <mxCell id="kx-mthBQ9t7jLjJqVGqb-21" value="" style="endArrow=none;html=1;rounded=0;exitX=-0.012;exitY=0.411;exitDx=0;exitDy=0;exitPerimeter=0;" parent="1" source="kx-mthBQ9t7jLjJqVGqb-16" edge="1">
          <mxGeometry width="50" height="50" relative="1" as="geometry">
            <mxPoint x="390" y="600" as="sourcePoint" />
            <mxPoint x="350" y="520" as="targetPoint" />
            <Array as="points">
              <mxPoint x="320" y="679" />
              <mxPoint x="320" y="520" />
            </Array>
          </mxGeometry>
        </mxCell>
        <mxCell id="kx-mthBQ9t7jLjJqVGqb-22" value="" style="endArrow=none;html=1;rounded=0;entryX=0.006;entryY=0.396;entryDx=0;entryDy=0;entryPerimeter=0;" parent="1" target="kx-mthBQ9t7jLjJqVGqb-10" edge="1">
          <mxGeometry width="50" height="50" relative="1" as="geometry">
            <mxPoint x="320" y="600" as="sourcePoint" />
            <mxPoint x="440" y="550" as="targetPoint" />
          </mxGeometry>
        </mxCell>
        <mxCell id="kx-mthBQ9t7jLjJqVGqb-23" value="" style="endArrow=none;html=1;rounded=0;entryX=0;entryY=0.5;entryDx=0;entryDy=0;exitX=0;exitY=0.5;exitDx=0;exitDy=0;" parent="1" source="kx-mthBQ9t7jLjJqVGqb-7" target="kx-mthBQ9t7jLjJqVGqb-5" edge="1">
          <mxGeometry width="50" height="50" relative="1" as="geometry">
            <mxPoint x="290" y="370" as="sourcePoint" />
            <mxPoint x="340" y="320" as="targetPoint" />
            <Array as="points">
              <mxPoint x="320" y="435" />
              <mxPoint x="320" y="265" />
            </Array>
          </mxGeometry>
        </mxCell>
        <mxCell id="kx-mthBQ9t7jLjJqVGqb-24" value="" style="endArrow=none;html=1;rounded=0;exitX=0;exitY=0.5;exitDx=0;exitDy=0;entryX=0;entryY=0.5;entryDx=0;entryDy=0;" parent="1" source="kx-mthBQ9t7jLjJqVGqb-3" target="kx-mthBQ9t7jLjJqVGqb-2" edge="1">
          <mxGeometry width="50" height="50" relative="1" as="geometry">
            <mxPoint x="390" y="360" as="sourcePoint" />
            <mxPoint x="440" y="310" as="targetPoint" />
            <Array as="points">
              <mxPoint x="320" y="155" />
              <mxPoint x="320" y="65" />
            </Array>
          </mxGeometry>
        </mxCell>
        <mxCell id="kx-mthBQ9t7jLjJqVGqb-25" value="" style="endArrow=none;html=1;rounded=0;entryX=0;entryY=0.5;entryDx=0;entryDy=0;" parent="1" target="kx-mthBQ9t7jLjJqVGqb-6" edge="1">
          <mxGeometry width="50" height="50" relative="1" as="geometry">
            <mxPoint x="320" y="345" as="sourcePoint" />
            <mxPoint x="440" y="170" as="targetPoint" />
          </mxGeometry>
        </mxCell>
        <mxCell id="kx-mthBQ9t7jLjJqVGqb-27" value="" style="endArrow=classic;html=1;rounded=0;" parent="1" edge="1">
          <mxGeometry width="50" height="50" relative="1" as="geometry">
            <mxPoint x="320" y="610" as="sourcePoint" />
            <mxPoint x="300" y="610" as="targetPoint" />
          </mxGeometry>
        </mxCell>
        <mxCell id="kx-mthBQ9t7jLjJqVGqb-28" value="" style="endArrow=classic;html=1;rounded=0;" parent="1" edge="1">
          <mxGeometry width="50" height="50" relative="1" as="geometry">
            <mxPoint x="320" y="820" as="sourcePoint" />
            <mxPoint x="300" y="820" as="targetPoint" />
          </mxGeometry>
        </mxCell>
        <mxCell id="kx-mthBQ9t7jLjJqVGqb-29" value="" style="endArrow=classic;html=1;rounded=0;" parent="1" edge="1">
          <mxGeometry width="50" height="50" relative="1" as="geometry">
            <mxPoint x="320" y="340" as="sourcePoint" />
            <mxPoint x="300" y="340" as="targetPoint" />
          </mxGeometry>
        </mxCell>
        <mxCell id="kx-mthBQ9t7jLjJqVGqb-30" value="" style="endArrow=classic;html=1;rounded=0;" parent="1" target="kx-mthBQ9t7jLjJqVGqb-1" edge="1">
          <mxGeometry width="50" height="50" relative="1" as="geometry">
            <mxPoint x="320" y="130" as="sourcePoint" />
            <mxPoint x="440" y="290" as="targetPoint" />
            <Array as="points">
              <mxPoint x="300" y="130" />
            </Array>
          </mxGeometry>
        </mxCell>
        <mxCell id="kx-mthBQ9t7jLjJqVGqb-31" value="" style="endArrow=none;html=1;rounded=0;exitX=-0.006;exitY=0.654;exitDx=0;exitDy=0;exitPerimeter=0;entryX=0;entryY=0.5;entryDx=0;entryDy=0;" parent="1" source="kx-mthBQ9t7jLjJqVGqb-15" target="kx-mthBQ9t7jLjJqVGqb-1" edge="1">
          <mxGeometry width="50" height="50" relative="1" as="geometry">
            <mxPoint x="190" y="480" as="sourcePoint" />
            <mxPoint x="240" y="430" as="targetPoint" />
            <Array as="points">
              <mxPoint x="70" y="816" />
              <mxPoint x="70" y="105" />
            </Array>
          </mxGeometry>
        </mxCell>
        <mxCell id="kx-mthBQ9t7jLjJqVGqb-32" value="" style="endArrow=none;html=1;rounded=0;entryX=0.019;entryY=0.411;entryDx=0;entryDy=0;entryPerimeter=0;" parent="1" target="kx-mthBQ9t7jLjJqVGqb-8" edge="1">
          <mxGeometry width="50" height="50" relative="1" as="geometry">
            <mxPoint x="70" y="590" as="sourcePoint" />
            <mxPoint x="240" y="570" as="targetPoint" />
          </mxGeometry>
        </mxCell>
        <mxCell id="kx-mthBQ9t7jLjJqVGqb-33" value="" style="endArrow=none;html=1;rounded=0;entryX=0.013;entryY=0.611;entryDx=0;entryDy=0;entryPerimeter=0;" parent="1" target="kx-mthBQ9t7jLjJqVGqb-4" edge="1">
          <mxGeometry width="50" height="50" relative="1" as="geometry">
            <mxPoint x="70" y="340" as="sourcePoint" />
            <mxPoint x="240" y="410" as="targetPoint" />
          </mxGeometry>
        </mxCell>
        <mxCell id="kx-mthBQ9t7jLjJqVGqb-34" value="Customer" style="shape=umlActor;verticalLabelPosition=bottom;verticalAlign=top;html=1;outlineConnect=0;" parent="1" vertex="1">
          <mxGeometry x="-30" y="450" width="30" height="60" as="geometry" />
        </mxCell>
        <mxCell id="kx-mthBQ9t7jLjJqVGqb-38" value="" style="endArrow=none;html=1;rounded=0;" parent="1" source="kx-mthBQ9t7jLjJqVGqb-34" edge="1">
          <mxGeometry width="50" height="50" relative="1" as="geometry">
            <mxPoint x="190" y="490" as="sourcePoint" />
            <mxPoint x="70" y="480" as="targetPoint" />
          </mxGeometry>
        </mxCell>
        <mxCell id="4oFKNxRPFpt1JRnm4E1M-1" value="Đánh giá&amp;nbsp;" style="ellipse;whiteSpace=wrap;html=1;" vertex="1" parent="1">
          <mxGeometry x="130" y="950" width="160" height="70" as="geometry" />
        </mxCell>
        <mxCell id="4oFKNxRPFpt1JRnm4E1M-3" value="Xem các đánh giá" style="ellipse;whiteSpace=wrap;html=1;" vertex="1" parent="1">
          <mxGeometry x="350" y="910" width="160" height="70" as="geometry" />
        </mxCell>
        <mxCell id="4oFKNxRPFpt1JRnm4E1M-4" value="Tạo đánh giá" style="ellipse;whiteSpace=wrap;html=1;" vertex="1" parent="1">
          <mxGeometry x="350" y="1000" width="160" height="70" as="geometry" />
        </mxCell>
        <mxCell id="4oFKNxRPFpt1JRnm4E1M-5" value="" style="endArrow=none;html=1;rounded=0;entryX=0;entryY=0.5;entryDx=0;entryDy=0;exitX=0;exitY=0.5;exitDx=0;exitDy=0;" edge="1" parent="1" source="4oFKNxRPFpt1JRnm4E1M-4" target="4oFKNxRPFpt1JRnm4E1M-3">
          <mxGeometry width="50" height="50" relative="1" as="geometry">
            <mxPoint x="310" y="1040" as="sourcePoint" />
            <mxPoint x="310" y="950" as="targetPoint" />
            <Array as="points">
              <mxPoint x="310" y="1035" />
              <mxPoint x="310" y="945" />
            </Array>
          </mxGeometry>
        </mxCell>
        <mxCell id="4oFKNxRPFpt1JRnm4E1M-9" value="" style="endArrow=none;html=1;rounded=0;entryX=0;entryY=0.5;entryDx=0;entryDy=0;" edge="1" parent="1" target="4oFKNxRPFpt1JRnm4E1M-1">
          <mxGeometry width="50" height="50" relative="1" as="geometry">
            <mxPoint x="70" y="810" as="sourcePoint" />
            <mxPoint x="290" y="970" as="targetPoint" />
            <Array as="points">
              <mxPoint x="70" y="985" />
            </Array>
          </mxGeometry>
        </mxCell>
        <mxCell id="4oFKNxRPFpt1JRnm4E1M-10" value="" style="endArrow=classic;html=1;rounded=0;" edge="1" parent="1" target="4oFKNxRPFpt1JRnm4E1M-1">
          <mxGeometry width="50" height="50" relative="1" as="geometry">
            <mxPoint x="310" y="1000" as="sourcePoint" />
            <mxPoint x="290" y="970" as="targetPoint" />
          </mxGeometry>
        </mxCell>
      </root>
    </mxGraphModel>
  </diagram>
</mxfile>
